<?xml version="1.0" encoding="utf-8"?>
<!-- Generator: Adobe Illustrator 16.0.0, SVG Export Plug-In . SVG Version: 6.00 Build 0)  -->
<!DOCTYPE svg PUBLIC "-//W3C//DTD SVG 1.1//EN" "http://www.w3.org/Graphics/SVG/1.1/DTD/svg11.dtd">
<svg version="1.1" xmlns="http://www.w3.org/2000/svg" xmlns:xlink="http://www.w3.org/1999/xlink" x="0px" y="0px"
	 width="595.28px" height="841.89px" viewBox="0 0 595.28 841.89" enable-background="new 0 0 595.28 841.89" xml:space="preserve">
<g id="Layer_1">
</g>
<g id="Layer_2">
	<g>
		<path fill="#121628" d="M75.88,111.2c0,0.48-0.201,0.9-0.6,1.26c-0.401,0.36-0.84,0.54-1.32,0.54c-0.641,0-1.121-0.24-1.44-0.72
			L24.28,44.6v66c0,0.561-0.195,1.001-0.581,1.32c-0.388,0.321-0.814,0.48-1.279,0.48s-0.893-0.18-1.279-0.54
			c-0.388-0.36-0.581-0.78-0.581-1.26V39.08c0-0.559,0.154-1.08,0.463-1.56c0.308-0.48,0.771-0.72,1.388-0.72s1.08,0.281,1.389,0.84
			c0.559,0.8,1.74,2.42,3.54,4.86c1.8,2.441,3.96,5.42,6.48,8.94c2.52,3.521,5.319,7.401,8.4,11.64c3.079,4.241,6.18,8.541,9.3,12.9
			c3.12,4.361,6.139,8.601,9.06,12.72c2.919,4.121,5.52,7.8,7.8,11.04c2.28,3.24,4.099,5.9,5.46,7.98
			C75.199,109.801,75.88,110.96,75.88,111.2z M115.36,18.68c0,0.401-0.041,0.641-0.12,0.72v91.8c0,0.48-0.18,0.9-0.54,1.26
			c-0.36,0.36-0.78,0.54-1.26,0.54s-0.881-0.18-1.2-0.54c-0.321-0.36-0.48-0.78-0.48-1.26V24.56l-41.4,57.96
			c0.319,0.561,1.039,1.601,2.16,3.12c1.119,1.521,2.419,3.3,3.9,5.34c1.479,2.04,3.06,4.161,4.74,6.36
			c1.68,2.201,3.199,4.281,4.56,6.24c1.359,1.961,2.499,3.621,3.42,4.98c0.918,1.361,1.38,2.201,1.38,2.52
			c0,0.561-0.201,1.02-0.6,1.38c-0.401,0.36-0.84,0.54-1.32,0.54c-0.641,0-1.122-0.24-1.44-0.72l-66-91.92
			c-0.24-0.319-0.36-0.72-0.36-1.2s0.154-0.9,0.463-1.26c0.308-0.36,0.733-0.54,1.273-0.54c0.694,0,1.194,0.281,1.504,0.84
			l44.04,61.2L112,17.72c0.319-0.48,0.759-0.72,1.32-0.72c0.48,0,0.939,0.161,1.38,0.48C115.139,17.801,115.36,18.2,115.36,18.68z"
			/>
		<path fill="#121628" d="M203.319,110.96c0,0.48-0.161,0.941-0.479,1.38c-0.321,0.441-0.762,0.66-1.32,0.66h-58.856
			c-0.579,0-1.056-0.199-1.427-0.6c-0.371-0.399-0.557-0.879-0.557-1.44V18.8c0-0.559,0.206-0.999,0.619-1.32
			c0.413-0.319,0.868-0.48,1.365-0.48h58.856c0.479,0,0.9,0.188,1.26,0.559c0.36,0.372,0.54,0.807,0.54,1.301
			c0,0.497-0.18,0.932-0.54,1.303c-0.359,0.371-0.78,0.557-1.26,0.557h-57.12V57.8h44.521c0.479,0,0.899,0.188,1.26,0.559
			c0.359,0.371,0.54,0.806,0.54,1.301c0,0.497-0.181,0.932-0.54,1.303c-0.36,0.372-0.78,0.557-1.26,0.557h-44.28l-0.12,8.28h44.88
			c1.278,0,1.92,0.621,1.92,1.86c0,0.465-0.2,0.893-0.6,1.279c-0.401,0.388-0.84,0.581-1.32,0.581h-45v35.4h57.12
			c0.479,0,0.9,0.221,1.26,0.66C203.14,110.021,203.319,110.48,203.319,110.96z"/>
		<path fill="#F4782C" d="M272.559,19.04c0,0.161-0.681,1.26-2.04,3.3c-1.361,2.04-3.18,4.68-5.46,7.92
			c-2.279,3.24-4.88,6.921-7.8,11.04c-2.921,4.122-5.939,8.361-9.06,12.72c-3.12,4.361-6.201,8.661-9.24,12.9
			c-3.041,4.241-5.841,8.121-8.4,11.64c-2.561,3.521-4.721,6.5-6.479,8.94c-1.761,2.441-2.922,4.061-3.48,4.86
			c-0.32,0.561-0.801,0.84-1.439,0.84c-0.642,0-1.121-0.199-1.44-0.6c-0.32-0.399-0.479-0.879-0.479-1.44V19.4
			c0-0.48,0.18-0.9,0.54-1.26c0.359-0.36,0.779-0.54,1.26-0.54c0.479,0,0.919,0.161,1.32,0.48c0.399,0.32,0.6,0.761,0.6,1.32v66.24
			l48.24-67.68c0.318-0.559,0.84-0.84,1.56-0.84c0.48,0,0.9,0.18,1.26,0.54C272.379,18.02,272.559,18.481,272.559,19.04z
			 M311.799,111.2c0,0.48-0.18,0.9-0.54,1.26c-0.359,0.36-0.78,0.54-1.26,0.54c-0.642,0-1.121-0.24-1.44-0.72l-43.92-61.56
			l-43.92,61.08c-0.32,0.561-0.801,0.84-1.439,0.84c-0.561,0-1.021-0.199-1.38-0.6c-0.36-0.399-0.54-0.84-0.54-1.32
			c0-0.24,0.879-1.66,2.64-4.26c1.759-2.599,4.099-5.94,7.02-10.02c2.92-4.08,6.24-8.719,9.96-13.92
			c3.721-5.199,7.579-10.54,11.58-16.02c4-5.479,7.96-10.92,11.88-16.32c3.919-5.4,7.479-10.32,10.681-14.76
			c3.198-4.44,5.939-8.239,8.22-11.4c2.28-3.159,3.739-5.22,4.38-6.18c0.319-0.48,0.76-0.72,1.32-0.72c0.479,0,0.939,0.18,1.38,0.54
			c0.438,0.36,0.66,0.821,0.66,1.38c0,0.321-0.461,1.161-1.38,2.52c-0.921,1.361-2.061,3-3.42,4.92
			c-1.361,1.92-2.861,4.001-4.5,6.24c-1.641,2.24-3.222,4.361-4.74,6.36c-1.521,2-2.841,3.78-3.96,5.34
			c-1.121,1.56-1.842,2.58-2.16,3.06l41.16,57.84V18.8c0-0.559,0.198-0.999,0.6-1.32c0.399-0.319,0.84-0.48,1.32-0.48
			c0.479,0,0.9,0.18,1.26,0.54c0.36,0.36,0.54,0.78,0.54,1.26V111.2z"/>
		<path fill="#121628" d="M398.079,40.16c0,3.201-0.621,6.201-1.86,9c-1.241,2.801-2.9,5.261-4.979,7.38
			c-2.082,2.121-4.521,3.78-7.32,4.98c-2.802,1.2-5.802,1.8-9,1.8h-22.44v47.28c0,0.561-0.221,1.001-0.659,1.32
			c-0.441,0.321-0.9,0.48-1.381,0.48c-0.479,0-0.92-0.18-1.319-0.54c-0.401-0.36-0.601-0.782-0.601-1.262V20.72h-7.8v90.478
			c0,0.561-0.2,1.001-0.6,1.322c-0.401,0.321-0.84,0.48-1.32,0.48c-0.479,0-0.9-0.18-1.26-0.54c-0.36-0.36-0.54-0.78-0.54-1.26
			V18.92c0-1.279,0.6-1.92,1.8-1.92h36.12c3.198,0,6.198,0.621,9,1.86c2.8,1.241,5.238,2.901,7.32,4.98
			c2.079,2.082,3.738,4.521,4.979,7.32C397.458,33.961,398.079,36.961,398.079,40.16z M394.359,40.16c0-2.64-0.521-5.14-1.561-7.5
			c-1.041-2.359-2.441-4.419-4.2-6.18c-1.761-1.759-3.821-3.159-6.18-4.2c-2.36-1.039-4.86-1.56-7.5-1.56h-22.44V59.6h22.44
			c2.64,0,5.14-0.52,7.5-1.56c2.358-1.039,4.419-2.439,6.18-4.2c1.759-1.759,3.159-3.819,4.2-6.18
			C393.838,45.301,394.359,42.8,394.359,40.16z"/>
		<path fill="#121628" d="M420.518,111.2c0,0.561-0.2,1.001-0.6,1.32c-0.401,0.321-0.84,0.48-1.32,0.48
			c-0.479,0-0.899-0.18-1.26-0.54c-0.359-0.36-0.54-0.78-0.54-1.26V18.8c0-0.48,0.181-0.9,0.54-1.26c0.36-0.36,0.78-0.54,1.26-0.54
			c0.48,0,0.919,0.161,1.32,0.48c0.399,0.321,0.6,0.761,0.6,1.32V111.2z"/>
		<path fill="#121628" d="M506.798,40.16c0,3.201-0.621,6.201-1.86,9c-1.241,2.801-2.9,5.261-4.979,7.38
			c-2.082,2.121-4.521,3.78-7.32,4.98c-2.802,1.2-5.802,1.8-9,1.8h-22.44v47.28c0,0.561-0.221,1.001-0.659,1.32
			c-0.441,0.321-0.9,0.48-1.381,0.48c-0.479,0-0.92-0.18-1.319-0.54c-0.401-0.36-0.601-0.782-0.601-1.262V20.72h-7.8v90.478
			c0,0.561-0.2,1.001-0.6,1.322c-0.401,0.321-0.84,0.48-1.32,0.48c-0.479,0-0.9-0.18-1.26-0.54c-0.36-0.36-0.54-0.78-0.54-1.26
			V18.92c0-1.279,0.6-1.92,1.8-1.92h36.12c3.198,0,6.198,0.621,9,1.86c2.8,1.241,5.238,2.901,7.32,4.98
			c2.079,2.082,3.738,4.521,4.979,7.32C506.177,33.961,506.798,36.961,506.798,40.16z M503.078,40.16c0-2.64-0.521-5.14-1.561-7.5
			c-1.041-2.359-2.441-4.419-4.2-6.18c-1.761-1.759-3.821-3.159-6.18-4.2c-2.36-1.039-4.86-1.56-7.5-1.56h-22.44V59.6h22.44
			c2.64,0,5.14-0.52,7.5-1.56c2.358-1.039,4.419-2.439,6.18-4.2c1.759-1.759,3.159-3.819,4.2-6.18
			C502.557,45.301,503.078,42.8,503.078,40.16z"/>
		<path fill="#121628" d="M588.274,110.96c0,0.48-0.161,0.941-0.479,1.38c-0.321,0.441-0.762,0.66-1.32,0.66h-58.856
			c-0.579,0-1.056-0.199-1.427-0.6c-0.371-0.399-0.557-0.879-0.557-1.44V18.8c0-0.559,0.206-0.999,0.618-1.32
			c0.413-0.319,0.868-0.48,1.365-0.48h58.856c0.479,0,0.9,0.188,1.26,0.559c0.36,0.372,0.54,0.807,0.54,1.301
			c0,0.497-0.18,0.932-0.54,1.303c-0.359,0.371-0.78,0.557-1.26,0.557h-57.12V57.8h44.521c0.479,0,0.899,0.188,1.26,0.559
			c0.359,0.371,0.54,0.806,0.54,1.301c0,0.497-0.181,0.932-0.54,1.303c-0.36,0.372-0.78,0.557-1.26,0.557h-44.28l-0.12,8.28h44.88
			c1.278,0,1.92,0.621,1.92,1.86c0,0.465-0.2,0.893-0.6,1.279c-0.401,0.388-0.84,0.581-1.32,0.581h-45v35.4h57.12
			c0.479,0,0.9,0.221,1.26,0.66C588.095,110.021,588.274,110.48,588.274,110.96z"/>
	</g>
</g>
</svg>
